name C:\Users\antoi\Documents\MyRepositories\upper-imu-dc\Results\main_tracking\Case_69\FLX01_linearAccelerations_bodyFrame.mot
datacolumns 4
datarows 117
range 2.01000000 3.17000000
endheader 
time	radius_imu_x	radius_imu_y	radius_imu_z	
          2.01000000	         -3.39396446	         -3.46126241	          7.60345180	
          2.02000000	         -3.34397024	         -3.57329333	          7.56867471	
          2.03000000	         -3.30052784	         -3.68521191	          7.53572624	
          2.04000000	         -3.26415789	         -3.79700231	          7.50385570	
          2.05000000	         -3.23508706	         -3.90854264	          7.47255847	
          2.06000000	         -3.21322779	         -4.01959285	          7.44152417	
          2.07000000	         -3.19826421	         -4.12982124	          7.41053673	
          2.08000000	         -3.18980863	         -4.23886047	          7.37936961	
          2.09000000	         -3.18754688	         -4.34637641	          7.34771461	
          2.10000000	         -3.19129996	         -4.45214150	          7.31515947	
          2.11000000	         -3.20098591	         -4.55610681	          7.28120610	
          2.12000000	         -3.21653011	         -4.65844211	          7.24531572	
          2.13000000	         -3.23780210	         -4.75951076	          7.20695946	
          2.14000000	         -3.26462349	         -4.85977403	          7.16566177	
          2.15000000	         -3.29675797	         -4.95964417	          7.12102288	
          2.16000000	         -3.33383938	         -5.05936753	          7.07272939	
          2.17000000	         -3.37522486	         -5.15898007	          7.02055201	
          2.18000000	         -3.41984291	         -5.25832653	          6.96434105	
          2.19000000	         -3.46611766	         -5.35712632	          6.90401767	
          2.20000000	         -3.51201860	         -5.45505592	          6.83955954	
          2.21000000	         -3.55525582	         -5.55179442	          6.77096339	
          2.22000000	         -3.59358870	         -5.64702390	          6.69820048	
          2.23000000	         -3.62514804	         -5.74039807	          6.62115448	
          2.24000000	         -3.64869202	         -5.83153639	          6.53955225	
          2.25000000	         -3.66370150	         -5.92006344	          6.45291037	
          2.26000000	         -3.67028581	         -6.00567392	          6.36053924	
          2.27000000	         -3.66893961	         -6.08820035	          6.26163769	
          2.28000000	         -3.66026058	         -6.16765449	          6.15548647	
          2.29000000	         -3.64473515	         -6.24422596	          6.04170913	
          2.30000000	         -3.62262375	         -6.31827757	          5.92051740	
          2.31000000	         -3.59397957	         -6.39029856	          5.79287641	
          2.32000000	         -3.55872936	         -6.46081561	          5.66054863	
          2.33000000	         -3.51682469	         -6.53035153	          5.52596664	
          2.34000000	         -3.46842449	         -6.59930171	          5.39200999	
          2.35000000	         -3.41404287	         -6.66792052	          5.26168291	
          2.36000000	         -3.35462135	         -6.73630780	          5.13779755	
          2.37000000	         -3.29147528	         -6.80442820	          5.02274980	
          2.38000000	         -3.22611009	         -6.87214969	          4.91843894	
          2.39000000	         -3.15996650	         -6.93927216	          4.82630339	
          2.40000000	         -3.09419492	         -7.00556322	          4.74738996	
          2.41000000	         -3.02954295	         -7.07078867	          4.68238712	
          2.42000000	         -2.96637888	         -7.13473103	          4.63159937	
          2.43000000	         -2.90481645	         -7.19721228	          4.59488534	
          2.44000000	         -2.84487973	         -7.25811644	          4.57160212	
          2.45000000	         -2.78665681	         -7.31740012	          4.56058575	
          2.46000000	         -2.73040744	         -7.37509773	          4.56017040	
          2.47000000	         -2.67660952	         -7.43130490	          4.56824226	
          2.48000000	         -2.62595307	         -7.48616443	          4.58232878	
          2.49000000	         -2.57928957	         -7.53984115	          4.59972815	
          2.50000000	         -2.53753956	         -7.59249794	          4.61769056	
          2.51000000	         -2.50154843	         -7.64429334	          4.63363786	
          2.52000000	         -2.47189192	         -7.69538214	          4.64538351	
          2.53000000	         -2.44867305	         -7.74589407	          4.65129900	
          2.54000000	         -2.43138250	         -7.79590067	          4.65038902	
          2.55000000	         -2.41888059	         -7.84540278	          4.64227123	
          2.56000000	         -2.40951815	         -7.89435090	          4.62708300	
          2.57000000	         -2.40136843	         -7.94267917	          4.60534147	
          2.58000000	         -2.39252817	         -7.99031762	          4.57779281	
          2.59000000	         -2.38140857	         -8.03717724	          4.54527368	
          2.60000000	         -2.36694883	         -8.08310720	          4.50860815	
          2.61000000	         -2.34870690	         -8.12786631	          4.46854588	
          2.62000000	         -2.32679448	         -8.17115150	          4.42572803	
          2.63000000	         -2.30174185	         -8.21267315	          4.38065149	
          2.64000000	         -2.27429484	         -8.25225246	          4.33363943	
          2.65000000	         -2.24526067	         -8.28991186	          4.28479076	
          2.66000000	         -2.21541751	         -8.32584343	          4.23396986	
          2.67000000	         -2.18547417	         -8.36038847	          4.18083303	
          2.68000000	         -2.15606283	         -8.39398075	          4.12491651	
          2.69000000	         -2.12773276	         -8.42704624	          4.06576493	
          2.70000000	         -2.10092255	         -8.45989637	          4.00304359	
          2.71000000	         -2.07592146	         -8.49263723	          3.93659751	
          2.72000000	         -2.05279756	         -8.52512938	          3.86645750	
          2.73000000	         -2.03131236	         -8.55701924	          3.79282385	
          2.74000000	         -2.01083809	         -8.58783848	          3.71606039	
          2.75000000	         -1.99032841	         -8.61714129	          3.63670427	
          2.76000000	         -1.96838321	         -8.64462355	          3.55546702	
          2.77000000	         -1.94340489	         -8.67017525	          3.47319658	
          2.78000000	         -1.91379950	         -8.69386050	          3.39079598	
          2.79000000	         -1.87817068	         -8.71586149	          3.30912721	
          2.80000000	         -1.83547689	         -8.73642656	          3.22893576	
          2.81000000	         -1.78513999	         -8.75584340	          3.15081167	
          2.82000000	         -1.72710676	         -8.77443466	          3.07517767	
          2.83000000	         -1.66184559	         -8.79257165	          3.00227628	
          2.84000000	         -1.59026231	         -8.81066552	          2.93214776	
          2.85000000	         -1.51354218	         -8.82912714	          2.86460780	
          2.86000000	         -1.43297024	         -8.84831661	          2.79925517	
          2.87000000	         -1.34978832	         -8.86849270	          2.73554297	
          2.88000000	         -1.26511302	         -8.88979461	          2.67291051	
          2.89000000	         -1.17989335	         -8.91226137	          2.61094245	
          2.90000000	         -1.09487227	         -8.93586948	          2.54950600	
          2.91000000	         -1.01054364	         -8.96056972	          2.48882426	
          2.92000000	         -0.92712292	         -8.98631326	          2.42947505	
          2.93000000	         -0.84456103	         -9.01306337	          2.37233324	
          2.94000000	         -0.76261905	         -9.04079284	          2.31848157	
          2.95000000	         -0.68099724	         -9.06946280	          2.26910653	
          2.96000000	         -0.59949159	         -9.09897837	          2.22538107	
          2.97000000	         -0.51814082	         -9.12912878	          2.18833499	
          2.98000000	         -0.43732779	         -9.15953664	          2.15873512	
          2.99000000	         -0.35779657	         -9.18965949	          2.13700536	
          3.00000000	         -0.28057371	         -9.21886701	          2.12320725	
          3.01000000	         -0.20681795	         -9.24655684	          2.11707281	
          3.02000000	         -0.13765325	         -9.27224572	          2.11806255	
          3.03000000	         -0.07402502	         -9.29559372	          2.12543649	
          3.04000000	         -0.01667473	         -9.31636841	          2.13830989	
          3.05000000	          0.03384294	         -9.33441662	          2.15563069	
          3.06000000	          0.07716691	         -9.34958965	          2.17630869	
          3.07000000	          0.11312876	         -9.36176489	          2.19923131	
          3.08000000	          0.14182994	         -9.37090153	          2.22333506	
          3.09000000	          0.16368485	         -9.37712613	          2.24763079	
          3.10000000	          0.17943676	         -9.38078568	          2.27129450	
          3.11000000	          0.19003813	         -9.38243056	          2.29371675	
          3.12000000	          0.19649188	         -9.38273112	          2.31455441	
          3.13000000	          0.19970015	         -9.38235967	          2.33375768	
          3.14000000	          0.20036899	         -9.38188625	          2.35155711	
          3.15000000	          0.19898166	         -9.38170814	          2.36840265	
          3.16000000	          0.19582279	         -9.38201576	          2.38485875	
          3.17000000	          0.19102418	         -9.38279258	          2.40147785	
